<svg xmlns="http://www.w3.org/2000/svg" version="1.1" xmlns:xlink="http://www.w3.org/1999/xlink" xmlns:svgjs="http://svgjs.com/svgjs" width="512" height="512" x="0" y="0" viewBox="0 0 32 32" style="enable-background:new 0 0 512 512" xml:space="preserve"><g><path d="M5.52 7v15c0 .83.67 1.5 1.5 1.5h1.5V25c0 .827.673 1.5 1.5 1.5h14.96c.827 0 1.5-.673 1.5-1.5V10c0-.827-.673-1.5-1.5-1.5h-1.5V7c0-.83-.67-1.5-1.5-1.5H7.02c-.83 0-1.5.67-1.5 1.5zm19.46 2.5a.5.5 0 0 1 .5.5v15a.5.5 0 0 1-.5.5H10.02a.5.5 0 0 1-.5-.5v-1.5h12.46c.83 0 1.5-.67 1.5-1.5V9.5zM22.48 7v15c0 .28-.23.5-.5.5H7.02c-.28 0-.5-.22-.5-.5V7c0-.28.22-.5.5-.5h14.96c.27 0 .5.22.5.5z" fill="#000000" data-original="#000000"></path></g></svg>