<svg width="75" height="75" viewBox="0 0 75 75" fill="none" xmlns="http://www.w3.org/2000/svg">
<g opacity="0.6" clip-path="url(#clip0_68_57)">
<path d="M23.4531 75.0001C17.796 74.9964 12.3312 72.9469 8.06697 69.2296C3.80275 65.5123 1.02692 60.3781 0.251689 54.7744C-0.523541 49.1707 0.754152 43.4758 3.849 38.7404C6.94384 34.005 11.647 30.5488 17.0906 29.0094C21.0472 27.8764 25.2352 27.8246 29.2187 28.8594L53.9312 4.15318C55.2431 2.83219 56.8042 1.78485 58.5241 1.07192C60.2439 0.35899 62.0882 -0.00534314 63.9499 5.92101e-05C66.8798 0.00254181 69.689 1.16753 71.7607 3.23927C73.8325 5.31101 74.9974 8.12018 74.9999 11.0501C75.0048 12.9119 74.6405 14.7562 73.9282 16.4764C73.2159 18.1966 72.1696 19.7586 70.8499 21.0719L68.7499 23.1719C67.5749 24.3389 65.9872 24.9958 64.3312 25.0001H59.3749V28.1251C59.3749 29.7827 58.7164 31.3724 57.5443 32.5445C56.3722 33.7166 54.7825 34.3751 53.1249 34.3751H49.9999V39.3313C50.0022 40.1524 49.8414 40.9657 49.5271 41.7242C49.2128 42.4827 48.751 43.1713 48.1687 43.7501L46.1374 45.7813C47.1779 49.7629 47.1272 53.9511 45.9906 57.9063C44.7115 62.4126 42.1165 66.4345 38.5379 69.457C34.9592 72.4795 30.5598 74.3649 25.9031 74.8719C25.0891 74.9565 24.2714 74.9993 23.4531 75.0001ZM23.4531 34.3751C20.2535 34.372 17.1166 35.262 14.3955 36.945C11.6744 38.628 9.47706 41.0372 8.05087 43.9013C6.62469 46.7654 6.02627 49.9707 6.32297 53.1564C6.61968 56.3422 7.79973 59.3819 9.7303 61.9333C11.6609 64.4848 14.2653 66.4467 17.2504 67.5983C20.2355 68.7498 23.4828 69.0453 26.6268 68.4514C29.7707 67.8575 32.6864 66.3978 35.0458 64.2366C37.4051 62.0755 39.1144 59.2987 39.9812 56.2188C40.9562 52.833 40.8469 49.2269 39.6687 45.9063C39.4764 45.3518 39.4442 44.7543 39.5757 44.1822C39.7072 43.6102 39.9972 43.0868 40.4124 42.6719L43.7499 39.3313V34.3751C43.7499 32.7175 44.4084 31.1278 45.5805 29.9556C46.7526 28.7835 48.3423 28.1251 49.9999 28.1251H53.1249V25.0001C53.1249 23.3425 53.7834 21.7527 54.9555 20.5806C56.1276 19.4085 57.7173 18.7501 59.3749 18.7501H64.3312L66.4312 16.6501C67.1685 15.9162 67.7531 15.0434 68.1511 14.0822C68.5491 13.121 68.7526 12.0904 68.7499 11.0501C68.7491 9.77782 68.2435 8.55787 67.3442 7.65797C66.4449 6.75806 65.2253 6.25172 63.953 6.25006C62.912 6.2475 61.8807 6.45139 60.919 6.84994C59.9572 7.24848 59.084 7.83377 58.3499 8.57194L32.3156 34.6032C31.9001 35.0184 31.376 35.3082 30.8033 35.4392C30.2307 35.5702 29.6328 35.5371 29.0781 35.3438C27.2658 34.7057 25.3588 34.3782 23.4374 34.3751H23.4531ZM15.6249 56.2501C15.6249 56.8681 15.8082 57.4723 16.1516 57.9862C16.495 58.5001 16.983 58.9007 17.554 59.1372C18.1251 59.3737 18.7534 59.4356 19.3596 59.315C19.9658 59.1944 20.5226 58.8968 20.9596 58.4598C21.3967 58.0227 21.6943 57.4659 21.8149 56.8597C21.9355 56.2535 21.8736 55.6252 21.6371 55.0542C21.4005 54.4832 21 53.9951 20.4861 53.6517C19.9722 53.3083 19.368 53.1251 18.7499 53.1251C17.9211 53.1251 17.1263 53.4543 16.5402 54.0404C15.9542 54.6264 15.6249 55.4213 15.6249 56.2501Z" fill="black"/>
</g>
<defs>
<clipPath id="clip0_68_57">
<rect width="75" height="75" fill="white"/>
</clipPath>
</defs>
</svg>
