<svg xmlns="http://www.w3.org/2000/svg" version="1.1" xmlns:xlink="http://www.w3.org/1999/xlink" xmlns:svgjs="http://svgjs.com/svgjs" width="512" height="512" x="0" y="0" viewBox="0 0 501 501" style="enable-background:new 0 0 512 512" xml:space="preserve" class=""><g><path fill="#1B6275" d="M495.5 256c0 135.31-109.69 245-245 245S5.5 391.31 5.5 256s109.69-245 245-245 245 109.69 245 245z" data-original="#7ecd00" class=""></path><path fill="#117D68" d="M94.695 445.085A246.479 246.479 0 0 1 60.5 410.689V41c0-16.569 13.431-30 30-30h55.035c-16.569 0-30 13.431-30 30v394.309c0 10.77-12.532 16.629-20.84 9.776z" data-original="#015081" class=""></path><path fill="#0AAE8F" d="M440.5 41v369.689C395.575 465.803 327.148 501 250.5 501c-59.271 0-113.627-21.048-156-56.076V41c0-16.569 13.431-30 30-30h286c16.569 0 30 13.431 30 30z" data-original="#0571b3" class=""></path><path fill="#059BC3" d="M104.5 400v10c0 5.523-4.477 10-10 10H68.484a246.039 246.039 0 0 1-21.127-26.997A9.967 9.967 0 0 1 54.5 390h40c5.523 0 10 4.477 10 10zm-10-66.667h-40c-5.523 0-10 4.477-10 10v10c0 5.523 4.477 10 10 10h40c5.523 0 10-4.477 10-10v-10c0-5.522-4.477-10-10-10zM104.5 230v10c0 5.523-4.477 10-10 10h-40c-5.523 0-10-4.477-10-10v-10c0-5.523 4.477-10 10-10h40c5.523 0 10 4.477 10 10zm0 56.667v10c0 5.523-4.477 10-10 10h-40c-5.523 0-10-4.477-10-10v-10c0-5.523 4.477-10 10-10h40c5.523 0 10 4.477 10 10zM104.5 60v10c0 5.523-4.477 10-10 10h-40c-5.523 0-10-4.477-10-10V60c0-5.523 4.477-10 10-10h40c5.523 0 10 4.477 10 10zm0 113.333v10c0 5.523-4.477 10-10 10h-40c-5.523 0-10-4.477-10-10v-10c0-5.523 4.477-10 10-10h40c5.523 0 10 4.478 10 10zm0-56.666v10c0 5.523-4.477 10-10 10h-40c-5.523 0-10-4.477-10-10v-10c0-5.523 4.477-10 10-10h40c5.523 0 10 4.477 10 10z" data-original="#059bc3" class=""></path><path fill="#01BFF9" d="M104.5 400v10c0 5.523-4.477 10-10 10h-15c-5.523 0-10-4.477-10-10v-10c0-5.523 4.477-10 10-10h15c5.523 0 10 4.477 10 10zm-10-123.333h-20c-5.523 0-10 4.477-10 10v10c0 5.523 4.477 10 10 10h20c5.523 0 10-4.477 10-10v-10c0-5.523-4.477-10-10-10zm0 56.666h-20c-5.523 0-10 4.477-10 10v10c0 5.523 4.477 10 10 10h20c5.523 0 10-4.477 10-10v-10c0-5.522-4.477-10-10-10zm0-170h-20c-5.523 0-10 4.477-10 10v10c0 5.523 4.477 10 10 10h20c5.523 0 10-4.477 10-10v-10c0-5.522-4.477-10-10-10zM94.5 50h-20c-5.523 0-10 4.477-10 10v10c0 5.523 4.477 10 10 10h20c5.523 0 10-4.477 10-10V60c0-5.523-4.477-10-10-10zm0 170h-20c-5.523 0-10 4.477-10 10v10c0 5.523 4.477 10 10 10h20c5.523 0 10-4.477 10-10v-10c0-5.523-4.477-10-10-10zm0-113.333h-20c-5.523 0-10 4.477-10 10v10c0 5.523 4.477 10 10 10h20c5.523 0 10-4.477 10-10v-10c0-5.523-4.477-10-10-10z" data-original="#01bff9" class=""></path><path fill="#08A8F0" d="M370.5 250c0 66.274-53.726 120-120 120s-120-53.726-120-120 53.726-120 120-120 120 53.726 120 120z" data-original="#08a8f0" class=""></path><path fill="#059BC3" d="M348.205 319.684C326.442 350.144 290.79 370 250.5 370c-66.274 0-120-53.726-120-120 0-44.949 24.714-84.126 61.295-104.684-14.036 19.645-22.295 43.7-22.295 69.684 0 66.274 53.726 120 120 120 21.325 0 41.35-5.563 58.705-15.316z" data-original="#059bc3" class=""></path><path fill="#FFF5F5" d="M273.198 184.555c0 12.536-10.162 22.698-22.698 22.698s-22.698-10.162-22.698-22.698 10.162-22.698 22.698-22.698 22.698 10.162 22.698 22.698zm-22.698 37.83c-12.536 0-22.698 10.162-22.698 22.698v64.077c0 12.536 10.162 22.698 22.698 22.698s22.698-10.162 22.698-22.698v-64.077c0-12.536-10.162-22.698-22.698-22.698z" data-original="#fff5f5" class=""></path><path fill="#FD4343" d="m397.35 96.595-32.7-15.571a4.996 4.996 0 0 0-4.299 0L327.65 96.595c-3.318 1.58-7.15-.839-7.15-4.514V10c0-5.523 4.477-10 10-10h64c5.523 0 10 4.477 10 10v82.081c0 3.675-3.832 6.094-7.15 4.514z" data-original="#fd4343" class=""></path><path fill="#D73131" d="m346.5 87.619-18.85 8.976c-3.318 1.58-7.15-.839-7.15-4.514V10c0-5.523 4.477-10 10-10h16z" data-original="#d73131" class=""></path></g></svg>