<svg xmlns="http://www.w3.org/2000/svg" version="1.1" xmlns:xlink="http://www.w3.org/1999/xlink" xmlns:svgjs="http://svgjs.com/svgjs" width="512" height="512" x="0" y="0" viewBox="0 0 512 512" style="enable-background:new 0 0 512 512" xml:space="preserve" class=""><g><path d="M436 466H76a30.034 30.034 0 0 1-30-30V76a30.034 30.034 0 0 1 30-30h360a30.034 30.034 0 0 1 30 30v360a30.034 30.034 0 0 1-30 30zM76 66a10.011 10.011 0 0 0-10 10v360a10.011 10.011 0 0 0 10 10h360a10.011 10.011 0 0 0 10-10V76a10.011 10.011 0 0 0-10-10z" fill="#000000" data-original="#000000"></path></g></svg>