<svg width="873" height="323" viewBox="0 0 873 323" fill="none" xmlns="http://www.w3.org/2000/svg">
<path d="M506.227 232C480.076 232 467.445 218.48 467.445 190.905V111.384L488.259 123.837V193.218C488.259 204.248 494.308 210.118 505.693 210.118H517.791V232H506.227ZM530.634 210.118C542.02 210.118 548.068 204.248 548.068 193.218V161.018L568.883 148.565V190.905C568.883 199.444 567.993 203.536 566.214 210.118H592.721V232H517.825V210.118H530.634ZM536.327 261.887V243.919H554.651V261.887H536.327ZM592.655 210.118H656.876V187.703C656.876 172.226 644.601 160.306 631.437 160.306C626.456 160.306 622.364 161.907 616.315 164.754L607.42 143.939C616.137 139.67 624.143 137.535 630.903 137.535C660.612 137.535 678.224 161.374 678.224 185.39V232H592.655V210.118ZM699.083 246.232C712.782 246.232 719.898 243.03 719.898 229.331V161.552L741.068 148.921V210.118H754.944V232H741.068L740.89 233.779C738.577 257.618 726.658 269.537 702.285 269.537H694.28L699.083 246.232ZM814.592 238.226C801.605 238.226 794.311 234.491 787.195 227.375C783.993 229.331 781.68 230.399 780.079 230.399C775.81 231.466 771.54 232 767.448 232H754.995V210.118H762.289C775.632 210.118 779.723 203.18 779.723 189.126C779.723 165.999 790.753 150.166 814.592 150.166H827.578C850.705 150.166 862.269 163.686 862.269 187.347V238.226H814.592ZM800.538 185.39C800.538 196.064 800.716 200.334 800.716 203.358C801.605 213.854 808.365 216.345 813.702 216.345H841.455V187.347C841.455 174.716 834.339 172.226 828.646 172.226H814.592C803.028 172.226 800.538 179.164 800.538 185.39Z" fill="black"/>
<path d="M196.339 221.504L192.709 224.943L192.714 224.948L196.339 221.504ZM186.554 186.102L181.555 185.996L181.554 186.049V186.102H186.554ZM229.784 148.565L234.715 149.394L235.694 143.565H229.784V148.565ZM226.226 169.735V174.735H230.456L231.157 170.564L226.226 169.735ZM300.054 210.118V215.118H300.094L300.134 215.118L300.054 210.118ZM317.133 123.481L314.64 119.146L312.133 120.588V123.481H317.133ZM338.481 111.206H343.481V102.563L335.988 106.871L338.481 111.206ZM338.659 190.727H343.659V190.623L343.654 190.519L338.659 190.727ZM337.236 207.806L332.374 206.639L332.325 206.84L332.294 207.045L337.236 207.806ZM336.88 210.118L331.938 209.358L331.052 215.118H336.88V210.118ZM360.54 210.118H365.54V205.118H360.54V210.118ZM360.54 232V237H365.54V232H360.54ZM254.334 165.643H249.334V170.643H254.334V165.643ZM254.334 154.436V149.436H249.334V154.436H254.334ZM261.628 154.436V159.436H269.013L266.27 152.579L261.628 154.436ZM289.558 134.155L293.355 137.409L296.22 134.066L293.266 130.8L289.558 134.155ZM284.221 140.382L280.877 144.098L284.684 147.525L288.018 143.635L284.221 140.382ZM291.337 154.613H296.337V149.613H291.337V154.613ZM291.337 165.643V170.643H296.337V165.643H291.337ZM230.496 227C224.587 227 218.202 226.205 212.58 224.61C206.853 222.986 202.458 220.685 199.964 218.06L192.714 224.948C196.98 229.438 203.348 232.386 209.851 234.231C216.46 236.105 223.773 237 230.496 237V227ZM199.968 218.065C194.885 212.7 191.554 203.267 191.554 186.102H181.554C181.554 204.161 184.983 216.788 192.709 224.943L199.968 218.065ZM191.553 186.207C191.804 174.329 194.877 166.428 200.002 161.445C205.134 156.456 213.174 153.565 225.159 153.565V143.565C211.703 143.565 200.709 146.811 193.031 154.275C185.347 161.746 181.838 172.612 181.555 185.996L191.553 186.207ZM225.159 153.565H229.784V143.565H225.159V153.565ZM224.853 147.736L221.295 168.906L231.157 170.564L234.715 149.394L224.853 147.736ZM226.226 164.735C221.559 164.735 215.564 165.479 210.714 169.408C205.658 173.504 202.902 180.166 202.902 189.66H212.902C212.902 182.076 215.039 178.774 217.009 177.178C219.187 175.414 222.354 174.735 226.226 174.735V164.735ZM202.902 189.66C202.902 199.031 205.542 205.714 210.285 209.954C214.922 214.1 220.697 215.118 225.336 215.118V205.118C221.97 205.118 219.029 204.358 216.95 202.499C214.977 200.736 212.902 197.189 212.902 189.66H202.902ZM225.336 215.118H300.054V205.118H225.336V215.118ZM300.134 215.118C306.591 215.015 312.311 213.197 316.386 208.996C320.448 204.808 322.133 199.014 322.133 192.506H312.133C312.133 197.384 310.882 200.307 309.207 202.034C307.544 203.749 304.725 205.044 299.975 205.119L300.134 215.118ZM322.133 192.506V123.481H312.133V192.506H322.133ZM319.625 127.816L340.973 115.54L335.988 106.871L314.64 119.146L319.625 127.816ZM333.481 111.206C333.481 160.367 333.479 186.527 333.663 190.935L343.654 190.519C343.482 186.388 343.481 160.601 343.481 111.206H333.481ZM333.659 190.727C333.659 197.412 333.297 202.792 332.374 206.639L342.097 208.972C343.309 203.924 343.659 197.563 343.659 190.727H333.659ZM332.294 207.045L331.938 209.358L341.822 210.879L342.177 208.566L332.294 207.045ZM336.88 215.118H360.54V205.118H336.88V215.118ZM355.54 210.118V232H365.54V210.118H355.54ZM360.54 227H230.496V237H360.54V227ZM259.334 165.643V154.436H249.334V165.643H259.334ZM254.334 159.436H261.628V149.436H254.334V159.436ZM266.27 152.579C265.459 150.55 265.093 149.748 264.828 148.836C264.63 148.157 264.493 147.396 264.493 145.896H254.493C254.493 148.133 254.712 149.862 255.226 151.629C255.672 153.163 256.374 154.764 256.986 156.293L266.27 152.579ZM264.493 145.896C264.493 138.807 270.148 133.284 276.75 133.284V123.284C264.493 123.284 254.493 133.417 254.493 145.896H264.493ZM276.75 133.284C280.048 133.284 283.355 134.751 285.851 137.51L293.266 130.8C289.001 126.087 283.058 123.284 276.75 123.284V133.284ZM285.762 130.901L280.425 137.128L288.018 143.635L293.355 137.409L285.762 130.901ZM287.566 136.665C284.888 134.254 281.39 132.891 277.817 132.891V142.891C278.87 142.891 279.997 143.306 280.877 144.098L287.566 136.665ZM277.817 132.891C270.592 132.891 263.922 138.537 263.922 146.252H273.922C273.922 144.716 275.435 142.891 277.817 142.891V132.891ZM263.922 146.252C263.922 153.967 270.592 159.613 277.817 159.613V149.613C275.435 149.613 273.922 147.788 273.922 146.252H263.922ZM277.817 159.613H291.337V149.613H277.817V159.613ZM286.337 154.613V165.643H296.337V154.613H286.337ZM291.337 160.643H254.334V170.643H291.337V160.643ZM391.59 161.018L389.022 156.727L386.59 158.183V161.018H391.59ZM412.404 148.565H417.404V139.747L409.837 144.274L412.404 148.565ZM358.678 232H353.678V237H358.678V232ZM358.678 210.118V205.118H353.678V210.118H358.678ZM373.977 261.887H368.977V266.887H373.977V261.887ZM373.977 243.919V238.919H368.977V243.919H373.977ZM392.301 243.919H397.301V238.919H392.301V243.919ZM392.301 261.887V266.887H397.301V261.887H392.301ZM374.155 215.118C380.657 215.118 386.454 213.437 390.623 209.394C394.818 205.326 396.59 199.623 396.59 193.218H386.59C386.59 197.842 385.337 200.59 383.661 202.215C381.96 203.865 379.039 205.118 374.155 205.118V215.118ZM396.59 193.218V161.018H386.59V193.218H396.59ZM394.157 165.309L414.971 152.856L409.837 144.274L389.022 156.727L394.157 165.309ZM407.404 148.565V190.905H417.404V148.565H407.404ZM407.404 190.905C407.404 204.027 404.389 212.831 399.179 218.366C394.024 223.842 385.882 227 373.622 227V237C387.512 237 398.762 233.398 406.46 225.22C414.103 217.101 417.404 205.358 417.404 190.905H407.404ZM373.622 227H358.678V237H373.622V227ZM363.678 232V210.118H353.678V232H363.678ZM358.678 215.118H374.155V205.118H358.678V215.118ZM378.977 261.887V243.919H368.977V261.887H378.977ZM373.977 248.919H392.301V238.919H373.977V248.919ZM387.301 243.919V261.887H397.301V243.919H387.301ZM392.301 256.887H373.977V266.887H392.301V256.887Z" fill="#9747FF"/>
</svg>
